<svg width="711" height="1466" fill="none" xmlns="http://www.w3.org/2000/svg"><path fill-rule="evenodd" clip-rule="evenodd" d="M846.646-117.886C968.951-85.8 1108.59-141.543 1211.03-55.665c117.06 98.143 230.56 246.594 231.98 437.755 1.4 189.72-145.28 333.45-225.01 503.526-77.5 165.344-110.44 373.284-235.016 477.834-129.502 108.68-290.598 122.88-429.218 79.62-131.857-41.16-213.598-186.54-306.726-309.3C149.912 1005.73-8.02 905.387.737 714.062c8.853-193.417 204.2-290.079 286.627-461.281 77.893-161.785 48.915-418.391 178.134-504.032 129.286-85.685 248.212 98.49 381.148 133.365z" fill="#686DE0"/></svg>