<svg width="454" height="1380" fill="none" xmlns="http://www.w3.org/2000/svg"><path fill-rule="evenodd" clip-rule="evenodd" d="M-219.457 1271.45c-108.53-19.25-225.662 32.44-320.89-30.73-108.827-72.18-218.256-184.67-233.519-337.021-15.147-151.204 101.64-273.415 158.365-413.162 55.146-135.857 68.472-303.37 168.943-393.193C-342.114 3.969-203.308-15.703-79.795 11.605c117.488 25.977 199.12 137.666 288.977 230.723 93.717 97.055 238.186 168.879 244.629 321.89 6.513 154.684-155.974 241.887-214.961 382.672-55.743 133.04-11.75 336.15-117.639 411.14-105.945 75.02-222.705-65.67-340.668-86.58z" fill="#686DE0"/></svg>