<svg width="163" height="183" viewBox="0 0 163 183" fill="none" xmlns="http://www.w3.org/2000/svg">
<rect x="1" y="32" width="150" height="150" rx="38" fill="#D0E0D4" stroke="black" stroke-width="1.5"/>
<path d="M159.263 48.7808L85.1446 11.7057C68.8978 57.8054 33.9512 97.7557 18.5088 111.968C36.8189 122.854 77.5086 146.923 93.7867 156.111C129.594 115.761 152.357 67.7451 159.263 48.7808Z" fill="white" stroke="black" stroke-width="1.5"/>
<path d="M105.332 106.917L83.8337 132.196L76.0117 127.763L70.7969 124.808L63.4963 120.671L58.2816 117.716L51.2418 113.727L62.591 101.08L69.3736 104.908L58.2816 117.716L63.4963 120.671L80.9952 101.598L87.7778 105.426L70.7969 124.808L76.0117 127.763L97.438 102.762L105.332 106.917Z" fill="#379C60"/>
<path d="M62.4949 87.5987C58.1526 95.1276 48.4903 105.495 44.2019 109.738L51.2418 113.727M89.0484 135.151L83.8337 132.196M83.8337 132.196L105.332 106.917L97.438 102.762L76.0117 127.763M83.8337 132.196L76.0117 127.763M76.0117 127.763L70.7969 124.808M70.7969 124.808L87.7778 105.426L80.9952 101.598L63.4963 120.671M70.7969 124.808L63.4963 120.671M63.4963 120.671L58.2816 117.716M58.2816 117.716L69.3736 104.908L62.5911 101.08L51.2418 113.727M58.2816 117.716L51.2418 113.727" stroke="black" stroke-width="1.5"/>
<path d="M85.9607 33.96L138.734 61.0915" stroke="black" stroke-width="1.5"/>
<path d="M78.2106 50.0256L130.02 76.2623" stroke="black" stroke-width="1.5"/>
<path d="M70.7531 64.9546L121.859 91.5961" stroke="black" stroke-width="1.5"/>
</svg>
