<svg width="199" height="180" viewBox="0 0 199 180" fill="none" xmlns="http://www.w3.org/2000/svg">
<rect x="1.05786" y="29" width="150" height="150" rx="38" fill="#D0E0D4" stroke="black" stroke-width="1.5"/>
<rect width="99.1747" height="116.512" rx="12.4813" transform="matrix(-0.910728 0.397529 0.389719 0.927554 142.251 11.3381)" fill="black"/>
<rect x="-0.521008" y="1.32508" width="91.9064" height="106.744" rx="11.4813" transform="matrix(-0.910728 0.397529 0.389719 0.927554 134.556 13.3654)" fill="white" stroke="black" stroke-width="2"/>
<rect width="71.4139" height="22.2043" transform="matrix(-0.910728 0.397529 0.389719 0.927554 131.954 29.2317)" fill="black"/>
<rect x="-0.521008" y="1.32508" width="21.0549" height="20.2043" rx="3.88398" transform="matrix(-0.910728 0.397529 0.389719 0.927554 143.311 60.1644)" fill="#F6F6F6" stroke="black" stroke-width="2"/>
<rect x="-0.521008" y="1.32508" width="21.0549" height="20.2043" rx="3.88398" transform="matrix(-0.910728 0.397529 0.389719 0.927554 153.518 84.4567)" fill="#379C60" stroke="black" stroke-width="2"/>
<rect x="-0.521008" y="1.32508" width="21.0549" height="20.2043" rx="3.88398" transform="matrix(-0.910728 0.397529 0.389719 0.927554 118.73 70.8947)" fill="#379C60" stroke="black" stroke-width="2"/>
<rect x="-0.521008" y="1.32508" width="21.0549" height="20.2043" rx="3.88398" transform="matrix(-0.910728 0.397529 0.389719 0.927554 128.936 95.1869)" fill="#F6F6F6" stroke="black" stroke-width="2"/>
<rect x="-0.521008" y="1.32508" width="21.0549" height="46.3941" rx="3.88398" transform="matrix(-0.910728 0.397529 0.389719 0.927554 94.1485 81.6239)" fill="#F6F6F6" stroke="black" stroke-width="2"/>
</svg>
