<svg width="700" height="133" viewBox="0 0 700 133" fill="none" xmlns="http://www.w3.org/2000/svg">
<path d="M57.3435 31.7273L38.5502 20.8789V42.5757L57.3435 31.7273Z" fill="#379C60"/>
<path d="M76.6517 42.9715L57.8451 32.123V53.8199L76.6517 42.9715Z" fill="#379C60"/>
<path d="M38.735 42.9715L57.5283 32.123V53.8199L38.735 42.9715Z" fill="#379C60"/>
<path d="M58.0431 76.7049L76.8365 87.5533V65.8564L58.0431 76.7049Z" fill="#379C60"/>
<path d="M96.0388 76.7049L77.2455 65.8564V87.5533L96.0388 76.7049Z" fill="#379C60"/>
<path d="M77.4435 65.4607L96.2368 76.3091V54.6123L77.4435 65.4607Z" fill="#379C60"/>
<path d="M58.0299 54.2156L76.8233 65.064V43.3672L58.0299 54.2156Z" fill="#379C60"/>
<path d="M96.0125 54.2156L77.2191 43.3672V65.064L96.0125 54.2156Z" fill="#379C60"/>
<path d="M57.9507 99.1931L76.744 110.042V88.3447L57.9507 99.1931Z" fill="#8FB198"/>
<path d="M38.6558 87.949L57.4491 98.7974V77.1006L38.6558 87.949Z" fill="#8FB198"/>
<path d="M76.5592 87.949L57.7659 98.7974V77.1006L76.5592 87.949Z" fill="#8FB198"/>
<path d="M57.2511 54.2156L38.4578 43.3672V65.064L57.2511 54.2156Z" fill="#8FB198"/>
<path d="M19.2554 54.2156L38.0487 65.064V43.3672L19.2554 54.2156Z" fill="#8FB198"/>
<path d="M37.8507 65.4607L19.0574 54.6123V76.3091L37.8507 65.4607Z" fill="#8FB198"/>
<path d="M57.2776 76.7049L38.4711 65.8564V87.5533L57.2776 76.7049Z" fill="#8FB198"/>
<path d="M19.2817 76.7049L38.0751 87.5533V65.8564L19.2817 76.7049Z" fill="#8FB198"/>
<path d="M129.046 78.2881C125.588 78.2881 122.632 77.813 120.177 76.8628C117.722 75.9125 115.848 74.54 114.555 72.7187C113.262 70.9106 112.615 68.7066 112.615 66.1199C112.615 63.5332 113.262 61.3292 114.555 59.5211C115.848 57.7131 117.722 56.3141 120.177 55.3639C122.632 54.4005 125.588 53.9253 129.046 53.9253C129.099 53.9253 129.204 53.9253 129.35 53.9253C129.495 53.9253 129.64 53.9253 129.798 53.9253C129.943 53.9253 130.036 53.9253 130.062 53.9253C133.52 53.9253 136.463 54.4005 138.905 55.3639C141.346 56.3273 143.22 57.7131 144.514 59.5211C145.807 61.3424 146.454 63.5332 146.454 66.1199C146.454 68.6802 145.807 70.871 144.527 72.7055C143.247 74.54 141.399 75.9257 138.984 76.8628C136.569 77.813 133.639 78.2881 130.221 78.2881C130.168 78.2881 130.049 78.2881 129.877 78.2881C129.706 78.2881 129.534 78.2881 129.376 78.2881C129.204 78.2881 129.099 78.2881 129.046 78.2881ZM129.495 75.1735C129.547 75.1735 129.653 75.1735 129.825 75.1735C132.583 75.1471 134.906 74.7907 136.793 74.1176C138.68 73.4314 140.119 72.4284 141.109 71.069C142.098 69.7229 142.587 68.06 142.587 66.0803C142.587 64.1271 142.085 62.4906 141.082 61.1576C140.079 59.8247 138.641 58.8085 136.767 58.109C134.893 57.4095 132.596 57.0664 129.904 57.0664C129.877 57.0664 129.811 57.0664 129.719 57.0664C129.627 57.0664 129.547 57.0664 129.495 57.0664C126.71 57.0664 124.361 57.4095 122.434 58.0826C120.507 58.7689 119.042 59.7719 118.039 61.1048C117.036 62.4378 116.535 64.1007 116.535 66.1067C116.535 68.1127 117.049 69.7756 118.079 71.1086C119.108 72.4416 120.586 73.4446 122.513 74.1309C124.44 74.8303 126.763 75.1735 129.495 75.1735ZM127.673 81.218V51.1143H131.435V81.218H127.673Z" fill="#1D302E"/>
<path d="M152.129 80.1752V52.1436H156.141V73.7612L172.902 52.1436H176.623V80.162H172.651V58.5972L155.85 80.1752H152.129Z" fill="#1D302E"/>
<path d="M188.937 80.1752H184.885V52.1436H188.937V80.1752ZM205.579 67.6771H188.528V64.1929H205.579V67.6771ZM205.222 52.1436H209.274V80.162H205.222V52.1436Z" fill="#1D302E"/>
<path d="M213.603 80.1757L226.444 52.1572H230.456L243.337 80.1757H239.087L227.632 54.4008H229.255L217.8 80.1757H213.603ZM219.067 73.1678L220.162 69.9608H236.118L237.293 73.1678H219.067Z" fill="#1D302E"/>
<path d="M251.704 80.1752H247.653V52.1436H251.704V80.1752ZM268.347 67.6771H251.295V64.193H268.347V67.6771ZM267.977 52.1436H272.029V80.162H267.977V52.1436Z" fill="#1D302E"/>
<path d="M292.96 80.4923C290.796 80.4923 288.816 80.1359 286.981 79.4365C285.16 78.7238 283.577 77.734 282.244 76.4406C280.911 75.1473 279.855 73.6295 279.103 71.9007C278.35 70.1718 277.968 68.2581 277.968 66.1729C277.968 64.0877 278.35 62.1872 279.103 60.4451C279.855 58.7163 280.911 57.1985 282.257 55.9052C283.603 54.6118 285.187 53.6088 287.021 52.9093C288.842 52.1967 290.835 51.8535 293 51.8535C295.19 51.8535 297.21 52.2231 299.057 52.9489C300.905 53.688 302.475 54.7702 303.769 56.2087L301.143 58.7295C300.06 57.6077 298.846 56.7762 297.5 56.2219C296.154 55.6808 294.702 55.4037 293.171 55.4037C291.574 55.4037 290.096 55.6676 288.737 56.2087C287.377 56.7366 286.19 57.4889 285.2 58.4523C284.197 59.4157 283.418 60.5507 282.877 61.8705C282.323 63.1902 282.046 64.6288 282.046 66.1729C282.046 67.717 282.323 69.1556 282.877 70.4753C283.431 71.7951 284.21 72.9433 285.2 73.8935C286.203 74.8569 287.377 75.596 288.737 76.1371C290.096 76.665 291.574 76.9421 293.171 76.9421C294.715 76.9421 296.154 76.665 297.5 76.1239C298.846 75.5828 300.06 74.7249 301.143 73.5767L303.769 76.0975C302.475 77.536 300.905 78.6314 299.057 79.3837C297.21 80.1227 295.177 80.4923 292.96 80.4923Z" fill="#1D302E"/>
<path d="M320.939 80.4923C318.774 80.4923 316.768 80.136 314.921 79.4101C313.073 78.6842 311.476 77.6812 310.117 76.3879C308.771 75.0945 307.715 73.5768 306.963 71.8479C306.21 70.119 305.828 68.2185 305.828 66.1597C305.828 64.1009 306.21 62.2136 306.963 60.4716C307.715 58.7427 308.771 57.225 310.117 55.9316C311.463 54.6382 313.06 53.6352 314.894 52.9093C316.729 52.1835 318.735 51.8271 320.926 51.8271C323.09 51.8271 325.083 52.1835 326.904 52.883C328.725 53.5956 330.322 54.5854 331.682 55.8788C333.041 57.1722 334.097 58.6899 334.836 60.4188C335.575 62.1477 335.945 64.0613 335.945 66.1465C335.945 68.2317 335.575 70.1322 334.836 71.8743C334.097 73.6032 333.041 75.1209 331.682 76.4142C330.322 77.7076 328.725 78.7106 326.904 79.4101C325.096 80.136 323.103 80.4923 320.939 80.4923ZM320.939 76.929C322.509 76.929 323.961 76.665 325.294 76.1239C326.627 75.596 327.788 74.8305 328.778 73.8671C329.768 72.8905 330.534 71.7555 331.088 70.4489C331.642 69.1424 331.919 67.717 331.919 66.1597C331.919 64.6156 331.642 63.1903 331.088 61.8705C330.534 60.5639 329.768 59.4158 328.778 58.4523C327.788 57.4757 326.627 56.7234 325.294 56.1955C323.961 55.6676 322.509 55.3905 320.939 55.3905C319.342 55.3905 317.877 55.6544 316.544 56.1955C315.211 56.7234 314.037 57.4889 313.047 58.4523C312.044 59.429 311.265 60.5639 310.724 61.8705C310.17 63.1771 309.892 64.6024 309.892 66.1597C309.892 67.7038 310.17 69.1424 310.724 70.4489C311.278 71.7555 312.057 72.9037 313.047 73.8671C314.05 74.8437 315.211 75.596 316.544 76.1239C317.89 76.665 319.355 76.929 320.939 76.929Z" fill="#1D302E"/>
<path d="M341.963 80.1752V52.1436H354.157C357.232 52.1436 359.647 52.7638 361.403 53.9912C363.158 55.2186 364.029 57.0135 364.029 59.3494C364.029 61.6458 363.198 63.4011 361.521 64.6153C359.845 65.8295 357.641 66.4365 354.923 66.4365L355.649 65.2356C358.803 65.2356 361.231 65.8558 362.92 67.0964C364.61 68.337 365.454 70.1451 365.454 72.5206C365.454 74.9226 364.57 76.7966 362.802 78.1428C361.033 79.489 358.407 80.162 354.923 80.162H341.963V80.1752ZM345.975 64.4833H353.867C355.833 64.4833 357.338 64.1006 358.38 63.3219C359.423 62.5433 359.938 61.4083 359.938 59.9169C359.938 58.3992 359.423 57.251 358.38 56.4724C357.338 55.6937 355.833 55.311 353.867 55.311H345.975V64.4833ZM345.975 77.0078H354.843C357.008 77.0078 358.631 76.6119 359.727 75.8332C360.822 75.0414 361.363 73.8404 361.363 72.2039C361.363 70.5806 360.822 69.3928 359.727 68.6405C358.631 67.8883 357.008 67.5187 354.843 67.5187H345.975V77.0078Z" fill="#1D302E"/>
<path d="M384.076 61.923C387.428 61.923 390.002 62.662 391.81 64.1402C393.618 65.6183 394.529 67.8355 394.529 70.7654C394.529 73.8668 393.552 76.2028 391.599 77.7865C389.646 79.3702 386.9 80.162 383.364 80.162H371.644V52.1436H375.656V61.9098H384.076V61.923ZM383.179 77.0078C385.528 77.0078 387.323 76.4931 388.59 75.4505C389.857 74.4079 390.477 72.877 390.477 70.8445C390.477 68.8649 389.857 67.4132 388.616 66.4761C387.376 65.5391 385.567 65.0772 383.192 65.0772H375.656V77.0078H383.179ZM399.016 80.1752V52.1436H403.028V80.162H399.016V80.1752Z" fill="#1D302E"/>
<path d="M411.29 80.1758V52.1441H415.302V73.7618L432.063 52.1441H435.784V80.1626H431.812V58.5977L415.011 80.1758H411.29ZM423.471 50.1909C421.254 50.1909 419.551 49.7158 418.35 48.7523C417.149 47.7889 416.529 46.4428 416.503 44.7139H419.38C419.406 45.7565 419.789 46.5615 420.515 47.1422C421.241 47.7229 422.23 48.0001 423.471 48.0001C424.685 48.0001 425.662 47.7097 426.401 47.1422C427.14 46.5747 427.523 45.7565 427.549 44.7139H430.386C430.36 46.4428 429.74 47.8021 428.539 48.7523C427.351 49.7026 425.662 50.1909 423.471 50.1909Z" fill="#1D302E"/>
<path d="M450.486 86.2989L450.526 76.6911H481.382V86.2989H477.621V80.1752H454.3L454.261 86.2989H450.486ZM473.199 78.288V55.6277H460.767L460.569 61.5138C460.49 63.4935 460.358 65.3807 460.187 67.202C460.015 69.0233 459.764 70.6466 459.434 72.1115C459.104 73.5632 458.656 74.7642 458.075 75.688C457.494 76.6251 456.755 77.1926 455.871 77.4037L451.503 76.6779C452.558 76.7571 453.429 76.4007 454.116 75.6221C454.802 74.8302 455.343 73.7216 455.739 72.2963C456.135 70.8709 456.425 69.1948 456.61 67.2944C456.795 65.3807 456.94 63.3351 457.019 61.1443L457.296 52.1436H477.225V78.288H473.199Z" fill="#1D302E"/>
<path d="M486.357 80.1752V52.1436H490.37V73.7612L507.13 52.1436H510.852V80.162H506.88V58.5972L490.079 80.1752H486.357Z" fill="#1D302E"/>
<path d="M519.114 80.1752V52.1436H530.173C532.654 52.1436 534.779 52.5263 536.535 53.3049C538.29 54.0836 539.636 55.2054 540.586 56.6703C541.536 58.1353 541.998 59.8905 541.998 61.9098C541.998 63.9422 541.523 65.6843 540.586 67.136C539.636 68.5877 538.29 69.7095 536.535 70.5014C534.779 71.2933 532.654 71.676 530.173 71.676H521.344L523.165 69.7887V80.162H519.114V80.1752ZM523.165 70.1979L521.344 68.1918H530.055C532.641 68.1918 534.608 67.6507 535.941 66.5553C537.274 65.4599 537.947 63.9158 537.947 61.9098C537.947 59.9037 537.274 58.3596 535.941 57.2642C534.608 56.1688 532.641 55.6277 530.055 55.6277H521.344L523.165 53.6217V70.1979Z" fill="#1D302E"/>
<path d="M551.105 76.6911H567.628V80.1752H547.053V52.1436H567.061V55.6277H551.105V76.6911ZM550.749 64.2325H565.332V67.6375H550.749V64.2325Z" fill="#1D302E"/>
<path d="M573.422 80.1752V52.1436H577.394V80.162H573.422V80.1752ZM576.18 67.8355V64.3117H585.366V67.8355H576.18ZM585.854 66.5949L582.132 66.0406L592.294 52.1436H596.623L585.854 66.5949ZM592.492 80.1752L582.211 66.3706L585.498 64.3645L597.125 80.1752H592.492Z" fill="#1D302E"/>
<path d="M608.158 80.1752V54.5851L609.174 55.6277H598.484V52.1436H621.844V55.6277H611.154L612.13 54.5851V80.162H608.158V80.1752Z" fill="#1D302E"/>
<path d="M638.579 80.4923C636.414 80.4923 634.408 80.136 632.56 79.4101C630.713 78.6842 629.116 77.6812 627.757 76.3879C626.41 75.0945 625.355 73.5768 624.602 71.8479C623.85 70.119 623.467 68.2185 623.467 66.1597C623.467 64.1009 623.85 62.2136 624.602 60.4716C625.355 58.7427 626.41 57.225 627.757 55.9316C629.103 54.6382 630.7 53.6352 632.534 52.9093C634.368 52.1835 636.375 51.8271 638.565 51.8271C640.73 51.8271 642.723 52.1835 644.544 52.883C646.365 53.5956 647.962 54.5854 649.321 55.8788C650.681 57.1722 651.736 58.6899 652.476 60.4188C653.215 62.1477 653.584 64.0613 653.584 66.1465C653.584 68.2317 653.215 70.1322 652.476 71.8743C651.736 73.6032 650.681 75.1209 649.321 76.4142C647.962 77.7076 646.365 78.7106 644.544 79.4101C642.723 80.136 640.73 80.4923 638.579 80.4923ZM638.579 76.929C640.149 76.929 641.601 76.665 642.934 76.1239C644.267 75.596 645.428 74.8305 646.418 73.8671C647.408 72.8905 648.173 71.7555 648.727 70.4489C649.282 69.1424 649.559 67.717 649.559 66.1597C649.559 64.6156 649.282 63.1903 648.727 61.8705C648.173 60.5639 647.408 59.4158 646.418 58.4523C645.428 57.4757 644.267 56.7234 642.934 56.1955C641.601 55.6676 640.149 55.3905 638.579 55.3905C636.982 55.3905 635.517 55.6544 634.184 56.1955C632.851 56.7234 631.676 57.4889 630.686 58.4523C629.683 59.429 628.905 60.5639 628.364 61.8705C627.809 63.1771 627.532 64.6024 627.532 66.1597C627.532 67.7038 627.809 69.1424 628.364 70.4489C628.918 71.7555 629.697 72.9037 630.686 73.8671C631.689 74.8437 632.851 75.596 634.184 76.1239C635.517 76.665 636.982 76.929 638.579 76.929Z" fill="#1D302E"/>
<path d="M659.589 80.1752V52.1436H670.649C673.13 52.1436 675.255 52.5263 677.01 53.3049C678.765 54.0836 680.111 55.2054 681.062 56.6703C682.012 58.1353 682.474 59.8905 682.474 61.9098C682.474 63.9422 681.999 65.6843 681.062 67.136C680.111 68.5877 678.765 69.7095 677.01 70.5014C675.255 71.2933 673.13 71.676 670.649 71.676H661.82L663.641 69.7887V80.162H659.589V80.1752ZM663.641 70.1979L661.82 68.1918H670.53C673.117 68.1918 675.083 67.6507 676.416 66.5553C677.749 65.4599 678.422 63.9158 678.422 61.9098C678.422 59.9037 677.749 58.3596 676.416 57.2642C675.083 56.1688 673.117 55.6277 670.53 55.6277H661.82L663.641 53.6217V70.1979Z" fill="#1D302E"/>
<path d="M114.238 109.883H112.575V98.9556H114.238V109.883ZM121.101 105H114.08V103.641H121.101V105ZM120.943 98.9424H122.606V109.87H120.943V98.9424Z" fill="#379C60"/>
<path d="M124.638 109.884L129.93 98.9561H131.58L136.885 109.884H135.13L130.405 99.8271H131.078L126.354 109.884H124.638ZM126.882 107.152L127.33 105.898H133.903L134.391 107.152H126.882Z" fill="#379C60"/>
<path d="M141.755 109.884L147.047 98.9561H148.697L154.003 109.884H152.247L147.523 99.8271H148.196L143.471 109.884H141.755ZM144.012 107.152L144.461 105.898H151.033L151.521 107.152H144.012Z" fill="#379C60"/>
<path d="M159.031 107.983L153.91 98.9429H155.692L159.942 106.729L159.031 107.983ZM155.428 108.498C156.009 108.696 156.537 108.749 157.025 108.643C157.513 108.551 157.949 108.194 158.345 107.601L158.912 106.756L159.084 106.584L163.373 98.9297H165.023L159.836 107.917C159.44 108.604 158.991 109.118 158.477 109.475C157.962 109.818 157.408 110.016 156.814 110.055C156.22 110.095 155.613 109.989 155.006 109.739L155.428 108.498Z" fill="#379C60"/>
<path d="M169.246 109.884V99.9063L169.668 100.315H165.26V98.9561H174.881V100.302H170.473L170.869 99.8931V109.87H169.246V109.884Z" fill="#379C60"/>
<path d="M181.968 110.002C181.084 110.002 180.253 109.87 179.514 109.593C178.761 109.316 178.115 108.933 177.56 108.418C177.006 107.917 176.584 107.323 176.267 106.65C175.95 105.977 175.805 105.225 175.805 104.419C175.805 103.601 175.963 102.862 176.267 102.189C176.584 101.516 177.006 100.922 177.574 100.421C178.128 99.9191 178.788 99.5232 179.527 99.246C180.279 98.9689 181.097 98.8369 181.982 98.8369C182.879 98.8369 183.71 98.9821 184.476 99.2724C185.241 99.5628 185.888 99.9851 186.416 100.539L185.334 101.529C184.885 101.094 184.383 100.764 183.829 100.553C183.275 100.341 182.681 100.236 182.048 100.236C181.388 100.236 180.781 100.341 180.226 100.553C179.659 100.764 179.184 101.054 178.761 101.424C178.352 101.793 178.035 102.242 177.798 102.757C177.574 103.271 177.455 103.826 177.455 104.433C177.455 105.04 177.574 105.594 177.798 106.109C178.022 106.623 178.339 107.072 178.761 107.442C179.17 107.811 179.659 108.102 180.226 108.313C180.794 108.524 181.401 108.63 182.048 108.63C182.681 108.63 183.275 108.524 183.829 108.313C184.383 108.102 184.885 107.772 185.334 107.323L186.416 108.313C185.888 108.88 185.228 109.303 184.476 109.593C183.71 109.857 182.879 110.002 181.968 110.002Z" fill="#379C60"/>
<path d="M193.727 110.002C192.843 110.002 192.012 109.857 191.246 109.58C190.481 109.303 189.821 108.907 189.267 108.405C188.712 107.904 188.277 107.31 187.96 106.637C187.643 105.964 187.498 105.225 187.498 104.419C187.498 103.614 187.657 102.875 187.96 102.202C188.277 101.529 188.699 100.935 189.267 100.434C189.821 99.9323 190.481 99.5364 191.233 99.2592C191.985 98.9821 192.817 98.8369 193.714 98.8369C194.598 98.8369 195.43 98.9689 196.169 99.246C196.921 99.5232 197.581 99.9059 198.135 100.421C198.703 100.922 199.125 101.516 199.442 102.189C199.746 102.862 199.904 103.614 199.904 104.419C199.904 105.238 199.746 105.977 199.442 106.65C199.138 107.323 198.703 107.917 198.135 108.418C197.568 108.92 196.921 109.316 196.169 109.593C195.43 109.87 194.612 110.002 193.727 110.002ZM193.727 108.616C194.374 108.616 194.968 108.511 195.522 108.3C196.077 108.088 196.552 107.798 196.961 107.415C197.37 107.033 197.687 106.597 197.911 106.082C198.135 105.568 198.254 105.013 198.254 104.406C198.254 103.799 198.135 103.245 197.911 102.73C197.687 102.215 197.37 101.78 196.961 101.397C196.552 101.015 196.077 100.724 195.522 100.513C194.968 100.302 194.374 100.196 193.727 100.196C193.068 100.196 192.474 100.302 191.919 100.513C191.365 100.724 190.89 101.015 190.481 101.397C190.072 101.78 189.755 102.229 189.517 102.73C189.293 103.245 189.174 103.799 189.174 104.406C189.174 105.013 189.293 105.568 189.517 106.082C189.742 106.597 190.059 107.033 190.481 107.415C190.89 107.798 191.378 108.088 191.919 108.3C192.46 108.511 193.068 108.616 193.727 108.616Z" fill="#379C60"/>
<path d="M202.609 109.884V98.9561H207.163C208.179 98.9561 209.063 99.1012 209.776 99.4048C210.502 99.7083 211.056 100.144 211.439 100.711C211.821 101.279 212.019 101.965 212.019 102.757C212.019 103.549 211.821 104.222 211.439 104.789C211.056 105.357 210.488 105.792 209.776 106.096C209.05 106.399 208.179 106.558 207.163 106.558H203.533L204.285 105.819V109.857H202.609V109.884ZM204.285 105.99L203.533 105.212H207.123C208.192 105.212 208.997 105.001 209.551 104.565C210.106 104.143 210.383 103.536 210.383 102.757C210.383 101.978 210.106 101.371 209.551 100.949C208.997 100.527 208.192 100.302 207.123 100.302H203.533L204.285 99.5235V105.99Z" fill="#379C60"/>
<path d="M219.74 110.002C218.856 110.002 218.024 109.87 217.285 109.593C216.533 109.316 215.886 108.933 215.332 108.418C214.778 107.917 214.355 107.323 214.038 106.65C213.722 105.977 213.577 105.225 213.577 104.419C213.577 103.601 213.735 102.862 214.038 102.189C214.355 101.516 214.778 100.922 215.345 100.421C215.899 99.9191 216.559 99.5232 217.298 99.246C218.051 98.9689 218.869 98.8369 219.753 98.8369C220.65 98.8369 221.482 98.9821 222.247 99.2724C223.013 99.5628 223.659 99.9851 224.187 100.539L223.105 101.529C222.656 101.094 222.155 100.764 221.601 100.553C221.046 100.341 220.452 100.236 219.819 100.236C219.159 100.236 218.552 100.341 217.998 100.553C217.43 100.764 216.955 101.054 216.533 101.424C216.124 101.793 215.807 102.242 215.569 102.757C215.345 103.271 215.226 103.826 215.226 104.433C215.226 105.04 215.345 105.594 215.569 106.109C215.794 106.623 216.11 107.072 216.533 107.442C216.942 107.811 217.43 108.102 217.998 108.313C218.565 108.524 219.172 108.63 219.819 108.63C220.452 108.63 221.046 108.524 221.601 108.313C222.155 108.102 222.656 107.772 223.105 107.323L224.187 108.313C223.659 108.88 223 109.303 222.247 109.593C221.482 109.857 220.65 110.002 219.74 110.002Z" fill="#379C60"/>
<path d="M226.497 109.884V98.9561H228.147V107.389L235.049 98.9561H236.58V109.884H234.943V101.464L228.028 109.884H226.497Z" fill="#379C60"/>
<path d="M241.885 109.883H240.223V98.9556H241.885V109.883ZM248.735 105H241.714V103.641H248.735V105ZM248.59 98.9424H250.253V109.87H248.59V98.9424Z" fill="#379C60"/>
<path d="M253.895 109.884V98.9561H261.55L261.537 100.315H255.136L255.532 99.9195L255.545 109.884H253.895Z" fill="#379C60"/>
<path d="M265.192 108.524H272.002V109.884H263.529V98.9561H271.765V100.302H265.192V108.524ZM265.047 103.668H271.052V105.001H265.047V103.668Z" fill="#379C60"/>
</svg>
